<mxfile host="app.diagrams.net" modified="2020-11-16T05:35:08.030Z" agent="5.0 (Windows NT 10.0; WOW64) AppleWebKit/537.36 (KHTML, like Gecko) Chrome/78.0.3904.108 Safari/537.36" etag="busj3n3hX7n2T2n6KbC7" version="13.8.0" type="github">
  <diagram id="IIBS6fkNnDVbYmw5l0Qb" name="第 1 页">
    <mxGraphModel dx="1824" dy="332" grid="0" gridSize="10" guides="1" tooltips="1" connect="1" arrows="1" fold="1" page="0" pageScale="1" pageWidth="827" pageHeight="1169" math="0" shadow="0">
      <root>
        <mxCell id="0" />
        <mxCell id="1" parent="0" />
        <mxCell id="Agp9uXZa8RFQaNIwZVon-1" value="" style="ellipse;html=1;shape=startState;fillColor=#f8cecc;direction=west;strokeColor=#b85450;" parent="1" vertex="1">
          <mxGeometry x="-119" y="465" width="30" height="30" as="geometry" />
        </mxCell>
        <mxCell id="Agp9uXZa8RFQaNIwZVon-2" value="" style="edgeStyle=orthogonalEdgeStyle;html=1;verticalAlign=bottom;endArrow=open;endSize=8;strokeColor=#006658;entryX=1;entryY=0.5;entryDx=0;entryDy=0;fontColor=#5C5C5C;" parent="1" source="Agp9uXZa8RFQaNIwZVon-1" target="Agp9uXZa8RFQaNIwZVon-5" edge="1">
          <mxGeometry relative="1" as="geometry">
            <mxPoint x="-24" y="480" as="targetPoint" />
          </mxGeometry>
        </mxCell>
        <mxCell id="Agp9uXZa8RFQaNIwZVon-3" value="待支付" style="text;html=1;align=center;verticalAlign=middle;resizable=0;points=[];autosize=1;fontColor=#5C5C5C;" parent="1" vertex="1">
          <mxGeometry x="-127" y="442" width="46" height="18" as="geometry" />
        </mxCell>
        <mxCell id="Agp9uXZa8RFQaNIwZVon-5" value="" style="ellipse;html=1;shape=startState;direction=west;fillColor=#f8cecc;strokeColor=#b85450;" parent="1" vertex="1">
          <mxGeometry x="47" y="465" width="30" height="30" as="geometry" />
        </mxCell>
        <mxCell id="Agp9uXZa8RFQaNIwZVon-6" value="支付完成" style="text;html=1;align=center;verticalAlign=middle;resizable=0;points=[];autosize=1;fontColor=#5C5C5C;" parent="1" vertex="1">
          <mxGeometry x="33" y="442" width="58" height="18" as="geometry" />
        </mxCell>
        <mxCell id="Agp9uXZa8RFQaNIwZVon-14" value="用户支付" style="text;html=1;align=center;verticalAlign=middle;resizable=0;points=[];autosize=1;fontColor=#5C5C5C;" parent="1" vertex="1">
          <mxGeometry x="-60" y="460" width="58" height="18" as="geometry" />
        </mxCell>
        <mxCell id="Agp9uXZa8RFQaNIwZVon-15" value="" style="edgeStyle=orthogonalEdgeStyle;html=1;verticalAlign=bottom;endArrow=open;endSize=8;strokeColor=#006658;fontColor=#5C5C5C;" parent="1" edge="1">
          <mxGeometry relative="1" as="geometry">
            <mxPoint x="-104" y="597" as="targetPoint" />
            <mxPoint x="-104" y="499" as="sourcePoint" />
          </mxGeometry>
        </mxCell>
        <mxCell id="Agp9uXZa8RFQaNIwZVon-16" value="30分钟未支付" style="text;html=1;align=center;verticalAlign=middle;resizable=0;points=[];autosize=1;fontColor=#5C5C5C;" parent="1" vertex="1">
          <mxGeometry x="-156" y="527" width="83" height="18" as="geometry" />
        </mxCell>
        <mxCell id="Agp9uXZa8RFQaNIwZVon-17" value="" style="ellipse;html=1;shape=startState;direction=west;fillColor=#f8cecc;strokeColor=#b85450;" parent="1" vertex="1">
          <mxGeometry x="-119" y="593" width="30" height="30" as="geometry" />
        </mxCell>
        <mxCell id="Agp9uXZa8RFQaNIwZVon-18" value="取消" style="text;html=1;align=center;verticalAlign=middle;resizable=0;points=[];autosize=1;fontColor=#5C5C5C;" parent="1" vertex="1">
          <mxGeometry x="-123" y="623" width="34" height="18" as="geometry" />
        </mxCell>
        <mxCell id="Agp9uXZa8RFQaNIwZVon-19" value="" style="edgeStyle=orthogonalEdgeStyle;html=1;verticalAlign=bottom;endArrow=open;endSize=8;strokeColor=#006658;fontColor=#5C5C5C;" parent="1" edge="1">
          <mxGeometry relative="1" as="geometry">
            <mxPoint x="60" y="597" as="targetPoint" />
            <mxPoint x="60" y="499" as="sourcePoint" />
          </mxGeometry>
        </mxCell>
        <mxCell id="Agp9uXZa8RFQaNIwZVon-20" value="发起退款" style="text;html=1;align=center;verticalAlign=middle;resizable=0;points=[];autosize=1;fontColor=#5C5C5C;" parent="1" vertex="1">
          <mxGeometry x="29" y="529" width="58" height="18" as="geometry" />
        </mxCell>
        <mxCell id="Agp9uXZa8RFQaNIwZVon-21" value="" style="ellipse;html=1;shape=startState;direction=west;fillColor=#f8cecc;strokeColor=#b85450;" parent="1" vertex="1">
          <mxGeometry x="45" y="593" width="30" height="30" as="geometry" />
        </mxCell>
        <mxCell id="Agp9uXZa8RFQaNIwZVon-22" value="退款完成" style="text;html=1;align=center;verticalAlign=middle;resizable=0;points=[];autosize=1;fontColor=#5C5C5C;" parent="1" vertex="1">
          <mxGeometry x="29" y="626" width="58" height="18" as="geometry" />
        </mxCell>
        <mxCell id="Agp9uXZa8RFQaNIwZVon-24" value="" style="ellipse;html=1;shape=startState;fillColor=#f8cecc;direction=west;strokeColor=#b85450;" parent="1" vertex="1">
          <mxGeometry x="-123" y="720" width="30" height="30" as="geometry" />
        </mxCell>
        <mxCell id="Agp9uXZa8RFQaNIwZVon-25" value="" style="edgeStyle=orthogonalEdgeStyle;html=1;verticalAlign=bottom;endArrow=open;endSize=8;strokeColor=#006658;entryX=1;entryY=0.5;entryDx=0;entryDy=0;fontColor=#5C5C5C;" parent="1" source="Agp9uXZa8RFQaNIwZVon-24" target="Agp9uXZa8RFQaNIwZVon-27" edge="1">
          <mxGeometry relative="1" as="geometry">
            <mxPoint x="-28" y="735" as="targetPoint" />
          </mxGeometry>
        </mxCell>
        <mxCell id="Agp9uXZa8RFQaNIwZVon-26" value="初始化" style="text;html=1;align=center;verticalAlign=middle;resizable=0;points=[];autosize=1;fontColor=#5C5C5C;" parent="1" vertex="1">
          <mxGeometry x="-131" y="697" width="46" height="18" as="geometry" />
        </mxCell>
        <mxCell id="Agp9uXZa8RFQaNIwZVon-27" value="" style="ellipse;html=1;shape=startState;direction=west;fillColor=#f8cecc;strokeColor=#b85450;" parent="1" vertex="1">
          <mxGeometry x="43" y="720" width="30" height="30" as="geometry" />
        </mxCell>
        <mxCell id="Agp9uXZa8RFQaNIwZVon-28" value="退款中" style="text;html=1;align=center;verticalAlign=middle;resizable=0;points=[];autosize=1;fontColor=#5C5C5C;" parent="1" vertex="1">
          <mxGeometry x="35" y="697" width="46" height="18" as="geometry" />
        </mxCell>
        <mxCell id="Agp9uXZa8RFQaNIwZVon-29" value="发起退款" style="text;html=1;align=center;verticalAlign=middle;resizable=0;points=[];autosize=1;fontColor=#5C5C5C;" parent="1" vertex="1">
          <mxGeometry x="-64" y="715" width="58" height="18" as="geometry" />
        </mxCell>
        <mxCell id="Agp9uXZa8RFQaNIwZVon-34" value="" style="edgeStyle=orthogonalEdgeStyle;html=1;verticalAlign=bottom;endArrow=open;endSize=8;strokeColor=#006658;fontColor=#5C5C5C;" parent="1" edge="1">
          <mxGeometry relative="1" as="geometry">
            <mxPoint x="206" y="736" as="targetPoint" />
            <mxPoint x="73" y="736" as="sourcePoint" />
          </mxGeometry>
        </mxCell>
        <mxCell id="Agp9uXZa8RFQaNIwZVon-36" value="" style="ellipse;html=1;shape=startState;direction=west;fillColor=#f8cecc;strokeColor=#b85450;" parent="1" vertex="1">
          <mxGeometry x="208" y="723" width="30" height="30" as="geometry" />
        </mxCell>
        <mxCell id="Agp9uXZa8RFQaNIwZVon-37" value="退款完成" style="text;html=1;align=center;verticalAlign=middle;resizable=0;points=[];autosize=1;fontColor=#5C5C5C;" parent="1" vertex="1">
          <mxGeometry x="192" y="700" width="58" height="18" as="geometry" />
        </mxCell>
        <mxCell id="Agp9uXZa8RFQaNIwZVon-39" value="退款审核通过" style="text;html=1;align=center;verticalAlign=middle;resizable=0;points=[];autosize=1;fontColor=#5C5C5C;" parent="1" vertex="1">
          <mxGeometry x="89" y="715" width="82" height="18" as="geometry" />
        </mxCell>
        <mxCell id="Agp9uXZa8RFQaNIwZVon-40" value="" style="edgeStyle=orthogonalEdgeStyle;html=1;verticalAlign=bottom;endArrow=open;endSize=8;strokeColor=#006658;fontColor=#5C5C5C;dashed=1;" parent="1" edge="1">
          <mxGeometry relative="1" as="geometry">
            <mxPoint x="-110" y="753" as="targetPoint" />
            <mxPoint x="54" y="753" as="sourcePoint" />
            <Array as="points">
              <mxPoint x="54" y="809" />
              <mxPoint x="-110" y="809" />
            </Array>
          </mxGeometry>
        </mxCell>
        <mxCell id="Agp9uXZa8RFQaNIwZVon-41" value="退款审核拒绝" style="text;html=1;align=center;verticalAlign=middle;resizable=0;points=[];autosize=1;fontColor=#5C5C5C;" parent="1" vertex="1">
          <mxGeometry x="-60" y="788" width="82" height="18" as="geometry" />
        </mxCell>
      </root>
    </mxGraphModel>
  </diagram>
</mxfile>
